<svg width="40" height="40" viewBox="0 0 40 40" fill="none" xmlns="http://www.w3.org/2000/svg">
<path d="M35.1141 6.4223H4.88591C2.19194 6.4223 0 8.61424 0 11.3082V28.6918C0 31.3858 2.19194 33.5777 4.88591 33.5777H35.1141C37.8081 33.5777 40 31.3858 40 28.6918V11.3087C40.0005 8.61424 37.8086 6.4223 35.1141 6.4223ZM32.7266 9.60981L20 17.8091L7.27335 9.60981H32.7266ZM35.1141 30.3907H4.88591C3.94932 30.3907 3.1875 29.6284 3.1875 28.6923V11.3991L19.0167 21.5778C19.0379 21.5911 19.0607 21.6001 19.0825 21.6124C19.1054 21.6251 19.1287 21.6373 19.1521 21.649C19.2748 21.7122 19.4013 21.7632 19.5304 21.7967C19.5437 21.8004 19.5569 21.802 19.5702 21.8052C19.7121 21.8387 19.8555 21.8594 19.9989 21.8594H20C20.0011 21.8594 20.0021 21.8594 20.0021 21.8594C20.1456 21.8594 20.289 21.8392 20.4308 21.8052C20.4441 21.802 20.4574 21.8004 20.4707 21.7967C20.5998 21.7632 20.7257 21.7122 20.8489 21.649C20.8723 21.6373 20.8957 21.6251 20.9185 21.6124C20.9403 21.6001 20.9632 21.5911 20.9844 21.5778L36.8136 11.3991V28.6918C36.813 29.6284 36.0507 30.3907 35.1141 30.3907Z" fill="#FAF7DF"/>
</svg>
