<svg width="57" height="57" viewBox="0 0 57 57" fill="none" xmlns="http://www.w3.org/2000/svg">
<path d="M25.3928 46.7863L25.3921 46.7857L25.3892 46.783C19.2648 41.2295 14.2217 36.6564 10.7034 32.355C7.19037 28.0599 5.25 24.0968 5.25 19.7723C5.25 12.7335 10.7736 7.20984 17.8125 7.20984C21.7936 7.20984 25.6224 9.06556 28.1193 11.9978L28.5 12.4448L28.8807 11.9978C31.3776 9.06556 35.2064 7.20984 39.1875 7.20984C46.2264 7.20984 51.75 12.7335 51.75 19.7723C51.75 24.0969 49.8096 28.06 46.2965 32.3581C42.7905 36.6474 37.7703 41.2094 31.675 46.7485L31.6086 46.8088L31.6075 46.8098L28.5013 49.6161L25.3928 46.7863Z" fill="#E3581D" stroke="#823030"/>
</svg>
