<svg width="31" height="31" viewBox="0 0 31 31" fill="none" xmlns="http://www.w3.org/2000/svg">
<g clip-path="url(#clip0_30_179)">
<path fill-rule="evenodd" clip-rule="evenodd" d="M3.34525 1.70758L7.01875 0L12.2384 10.19L8.71987 11.9234C8.02496 13.5496 11.5086 20.0467 12.9785 20.1539C13.0947 20.079 16.4285 18.4385 16.4285 18.4385L21.7373 28.684C21.7373 28.684 18.1671 30.433 18.0509 30.4872C17.2785 30.8398 16.4815 31.0026 15.6716 31C8.375 30.9755 0.0605388 17.5279 -0.000169536 8.61542C-0.0208362 5.50638 0.962122 2.94888 3.34525 1.70758ZM5.83816 3.35317L4.51679 4.00417C-2.32129 7.57175 9.91208 31.3681 16.9788 28.1403L18.2343 27.528L15.3009 21.8666L13.9757 22.5138C9.89012 24.512 3.30391 11.8975 7.44629 9.67717L8.747 9.03392L5.83816 3.35317ZM25.8332 21.9583H24.5415V5.16667H25.8332V21.9583ZM23.2498 19.375H21.9582V7.75H23.2498V19.375ZM28.4165 18.0833H27.1248V9.04167H28.4165V18.0833ZM20.6665 16.7917H19.3748V10.3333H20.6665V16.7917ZM18.0832 15.5H16.7915V11.625H18.0832V15.5ZM30.9998 15.5H29.7082V11.625H30.9998V15.5ZM15.4998 14.2083H14.2082V12.9167H15.4998V14.2083Z" fill="#FAF7DF"/>
</g>
<defs>
<clipPath id="clip0_30_179">
<rect width="31" height="31" fill="white"/>
</clipPath>
</defs>
</svg>
