<svg width="27" height="27" viewBox="0 0 27 27" fill="none" xmlns="http://www.w3.org/2000/svg">
<path d="M17.9624 15.9795H17.0997L16.794 15.6846C17.8641 14.4398 18.5083 12.8237 18.5083 11.0657C18.5083 7.14554 15.3307 3.96796 11.4106 3.96796C7.49051 3.96796 4.31293 7.14554 4.31293 11.0657C4.31293 14.9858 7.49051 18.1634 11.4106 18.1634C13.1687 18.1634 14.7848 17.5191 16.0296 16.449L16.3244 16.7548V17.6174L21.7842 23.0663L23.4112 21.4392L17.9624 15.9795ZM11.4106 15.9795C8.69167 15.9795 6.49684 13.7846 6.49684 11.0657C6.49684 8.34669 8.69167 6.15186 11.4106 6.15186C14.1296 6.15186 16.3244 8.34669 16.3244 11.0657C16.3244 13.7846 14.1296 15.9795 11.4106 15.9795Z" fill="#5B5959"/>
</svg>
