<svg width="24" height="28" viewBox="0 0 24 28" fill="none" xmlns="http://www.w3.org/2000/svg">
<path d="M11.9067 10.875H14.24V7.125H17.74V4.625H14.24V0.875H11.9067V4.625H8.40666V7.125H11.9067V10.875ZM7.23999 22.125C5.95666 22.125 4.91832 23.25 4.91832 24.625C4.91832 26 5.95666 27.125 7.23999 27.125C8.52332 27.125 9.57332 26 9.57332 24.625C9.57332 23.25 8.52332 22.125 7.23999 22.125ZM18.9067 22.125C17.6233 22.125 16.585 23.25 16.585 24.625C16.585 26 17.6233 27.125 18.9067 27.125C20.19 27.125 21.24 26 21.24 24.625C21.24 23.25 20.19 22.125 18.9067 22.125ZM8.52332 15.875H17.215C18.09 15.875 18.86 15.3625 19.2567 14.5875L23.76 5.825L21.73 4.625L17.215 13.375H9.02499L4.05499 2.125H0.23999V4.625H2.57332L6.77332 14.1125L5.19832 17.1625C4.34666 18.8375 5.46666 20.875 7.23999 20.875H21.24V18.375H7.23999L8.52332 15.875Z" fill="#5B5959"/>
</svg>
